HIERARCHY
ROOT hip
{
  OFFSET 0 0 0
  CHANNELS 6 Xposition Yposition Zposition Zrotation Yrotation Xrotation
  JOINT abdomen
  {
    OFFSET 0 20.6881 -0.73152
    CHANNELS 3 Zrotation Xrotation Yrotation
    JOINT chest
    {
      OFFSET 0 11.7043 -0.48768
      CHANNELS 3 Zrotation Xrotation Yrotation
      JOINT neck
      {
        OFFSET 0 22.1894 -2.19456
        CHANNELS 3 Zrotation Xrotation Yrotation
        JOINT head
        {
          OFFSET -0.24384 7.07133 1.2192
          CHANNELS 3 Zrotation Xrotation Yrotation
          JOINT leftEye
          {
            OFFSET 4.14528 8.04674 8.04672
            CHANNELS 3 Zrotation Xrotation Yrotation
            End Site
            {
              OFFSET 1 0 0
            }
          }
          JOINT rightEye
          {
            OFFSET -3.6576 8.04674 8.04672
            CHANNELS 3 Zrotation Xrotation Yrotation
            End Site
            {
              OFFSET 1 0 0
            }
          }
        }
      }
      JOINT rCollar
      {
        OFFSET -2.68224 19.2634 -4.8768
        CHANNELS 3 Zrotation Xrotation Yrotation
        JOINT rShldr
        {
          OFFSET -8.77824 -1.95073 1.46304
          CHANNELS 3 Zrotation Xrotation Yrotation
          JOINT rForeArm
          {
            OFFSET -28.1742 -1.7115 0.48768
            CHANNELS 3 Zrotation Xrotation Yrotation
            JOINT rHand
            {
              OFFSET -22.5879 0.773209 7.07136
              CHANNELS 3 Zrotation Xrotation Yrotation
              JOINT rThumb1
              {
                OFFSET -1.2192 -0.487915 3.41376
                CHANNELS 3 Zrotation Xrotation Yrotation
                JOINT rThumb2
                {
                  OFFSET -3.37035 -0.52449 3.41376
                  CHANNELS 3 Zrotation Xrotation Yrotation
                  End Site
                  {
                    OFFSET -1.78271 -1.18214 1.43049
                  }
                }
              }
              JOINT rIndex1
              {
                OFFSET -7.75947 0.938293 5.60832
                CHANNELS 3 Zrotation Xrotation Yrotation
                JOINT rIndex2
                {
                  OFFSET -2.54057 -0.884171 1.56538
                  CHANNELS 3 Zrotation Xrotation Yrotation
                  End Site
                  {
                    OFFSET -1.62519 -0.234802 1.16502
                  }
                }
              }
              JOINT rMid1
              {
                OFFSET -8.24714 1.18213 3.41376
                CHANNELS 3 Zrotation Xrotation Yrotation
                JOINT rMid2
                {
                  OFFSET -3.10165 -0.590103 1.0647
                  CHANNELS 3 Zrotation Xrotation Yrotation
                  End Site
                  {
                    OFFSET -2.48547 -0.328903 0.83742
                  }
                }
              }
              JOINT rRing1
              {
                OFFSET -8.82822 0.546677 1.51678
                CHANNELS 3 Zrotation Xrotation Yrotation
                JOINT rRing2
                {
                  OFFSET -2.60934 -0.819778 -0.0198488
                  CHANNELS 3 Zrotation Xrotation Yrotation
                  End Site
                  {
                    OFFSET -2.33842 -0.294052 0.168128
                  }
                }
              }
              JOINT rPinky1
              {
                OFFSET -8.27202 -0.0477905 -0.4584
                CHANNELS 3 Zrotation Xrotation Yrotation
                JOINT rPinky2
                {
                  OFFSET -1.82734 -0.647385 -0.700984
                  CHANNELS 3 Zrotation Xrotation Yrotation
                  End Site
                  {
                    OFFSET -1.69225 -0.51767 -0.607171
                  }
                }
              }
            }
          }
        }
      }
      JOINT lCollar
      {
        OFFSET 2.68224 19.2634 -4.8768
        CHANNELS 3 Zrotation Xrotation Yrotation
        JOINT lShldr
        {
          OFFSET 8.77824 -1.95073 1.46304
          CHANNELS 3 Zrotation Xrotation Yrotation
          JOINT lForeArm
          {
            OFFSET 28.1742 -1.7115 0.48768
            CHANNELS 3 Zrotation Xrotation Yrotation
            JOINT lHand
            {
              OFFSET 22.5879 0.773209 7.07136
              CHANNELS 3 Zrotation Xrotation Yrotation
              JOINT lThumb1
              {
                OFFSET 1.2192 -0.487915 3.41376
                CHANNELS 3 Zrotation Xrotation Yrotation
                JOINT lThumb2
                {
                  OFFSET 3.37035 -0.52449 3.41376
                  CHANNELS 3 Zrotation Xrotation Yrotation
                  End Site
                  {
                    OFFSET 1.78271 -1.18214 1.43049
                  }
                }
              }
              JOINT lIndex1
              {
                OFFSET 7.75947 0.938293 5.60832
                CHANNELS 3 Zrotation Xrotation Yrotation
                JOINT lIndex2
                {
                  OFFSET 2.54057 -0.884171 1.56538
                  CHANNELS 3 Zrotation Xrotation Yrotation
                  End Site
                  {
                    OFFSET 1.62519 -0.234802 1.16502
                  }
                }
              }
              JOINT lMid1
              {
                OFFSET 8.24714 1.18213 3.41376
                CHANNELS 3 Zrotation Xrotation Yrotation
                JOINT lMid2
                {
                  OFFSET 3.10165 -0.590103 1.0647
                  CHANNELS 3 Zrotation Xrotation Yrotation
                  End Site
                  {
                    OFFSET 2.48547 -0.328903 0.83742
                  }
                }
              }
              JOINT lRing1
              {
                OFFSET 8.82822 0.546677 1.51678
                CHANNELS 3 Zrotation Xrotation Yrotation
                JOINT lRing2
                {
                  OFFSET 2.60934 -0.819778 -0.0198488
                  CHANNELS 3 Zrotation Xrotation Yrotation
                  End Site
                  {
                    OFFSET 2.33842 -0.294052 0.168128
                  }
                }
              }
              JOINT lPinky1
              {
                OFFSET 8.27202 -0.0477905 -0.4584
                CHANNELS 3 Zrotation Xrotation Yrotation
                JOINT lPinky2
                {
                  OFFSET 1.82734 -0.647385 -0.700984
                  CHANNELS 3 Zrotation Xrotation Yrotation
                  End Site
                  {
                    OFFSET 1.69225 -0.51767 -0.607171
                  }
                }
              }
            }
          }
        }
      }
    }
  }
  JOINT rButtock
  {
    OFFSET -8.77824 4.35084 1.2192
    CHANNELS 3 Zrotation Xrotation Yrotation
    JOINT rThigh
    {
      OFFSET 0 -1.70687 -2.19456
      CHANNELS 3 Zrotation Xrotation Yrotation
      JOINT rShin
      {
        OFFSET 0 -36.8199 0.73152
        CHANNELS 3 Zrotation Xrotation Yrotation
        JOINT rFoot
        {
          OFFSET 0.73152 -45.1104 -5.12064
          CHANNELS 3 Zrotation Xrotation Yrotation
          End Site
          {
            OFFSET -1.1221 -3.69964 12.103
          }
        }
      }
    }
  }
  JOINT lButtock
  {
    OFFSET 8.77824 4.35084 1.2192
    CHANNELS 3 Zrotation Xrotation Yrotation
    JOINT lThigh
    {
      OFFSET 0 -1.70687 -2.19456
      CHANNELS 3 Zrotation Xrotation Yrotation
      JOINT lShin
      {
        OFFSET 0 -36.8199 0.73152
        CHANNELS 3 Zrotation Xrotation Yrotation
        JOINT lFoot
        {
          OFFSET -0.73152 -45.1104 -5.12064
          CHANNELS 3 Zrotation Xrotation Yrotation
          End Site
          {
            OFFSET 1.1221 -3.69964 12.103
          }
        }
      }
    }
  }
}
MOTION
Frames:	4
Frame Time:	0.03333
4.126700067536149 71.33479714393616 73.31100048613735 -4.437999936806764 24.70420000147833 -16.97439978569403 -11.09229978286064 26.18870063644558 2.5572100186480804 6.426910041979457 -9.285469714355791 0.8434049922046913 -5.553360009872915 17.146399316920583 -9.93588984599589 13.370900408848374 -22.5667008384593 -16.855699635655668 -0.0 0.0 0.0 -0.0 0.0 0.0 -1.0792800231318778e-13 -5.765529967002084e-15 6.172759919755856e-13 62.21370013059909 16.05929957843218 -1.93774003545825 -20.623399321469368 -52.852000382464084 112.67899677553436 -0.37584199133308843 -17.1711997337969 -2.488990089217993 -3.945699926044525e-09 -3.776509922194738e-09 -3.728889862365196e-09 -6.7755698288845555e-09 -6.444800093399053e-09 -6.5128699271224e-09 -3.945699926044525e-09 -3.776509922194738e-09 -3.7288998015985755e-09 7.730910121524428 5.474879855648998 0.41731399283890674 -3.945699926044525e-09 -3.776519861428117e-09 -3.728889862365196e-09 2.90554006136521 0.9651829962377875 0.10290200252939893 -3.945699926044525e-09 -3.776519861428117e-09 -3.728879923131816e-09 10.278599710243157 0.7318009818271524 0.025912300303053633 -3.945709865277904e-09 -3.776509922194738e-09 -3.728879923131816e-09 2.221669932038622 -0.7334870246959406 -0.20891999872313852 -1.081080053239536e-13 -5.764949864956233e-15 6.169780090998504e-13 -74.45359719874787 59.76050108640561 4.195409973621305 28.241700114147797 -38.86330167922524 -81.90790173435971 2.211079937173929 -38.2729991651123 6.366330106022852 7.347700031458602e-10 7.85836979172205e-09 -6.171870086592471e-11 1.2615599575468044e-09 1.299640003244697e-08 -7.290230141653736e-11 7.347680152991843e-10 7.858349913255292e-09 -6.17090970816717e-11 -7.730910121524428 5.474879855648998 -0.41731399283890674 7.347700031458602e-10 7.858340371591247e-09 -6.172180066433497e-11 -2.90554006136521 0.9651829962377875 -0.10290200252939893 7.347629959863276e-10 7.858360250058007e-09 -6.171550167518067e-11 -10.278599710243157 0.7318009818271524 -0.025912300303053633 7.347760163820549e-10 7.858360250058007e-09 -6.173139823656712e-11 -2.221669932038622 -0.7334870246959406 0.20891999872313852 -2.0321699793705798e-16 0.0 -3.882510030490358e-19 -99.53349858571192 -62.969802071719506 -93.21560092420681 -174.56600212794257 76.35070273128643 175.38700452655644 -9.534179953924406 39.156699285212305 18.993400289255213 2.0321699793705798e-16 0.0 3.882510030490358e-19 10.905500085476314 6.119020055234092 -1.6112400243804212 0.13080699384753727 58.00049794107673 -4.4319799788270435 24.347199673940104 -26.645800801364928 37.61760153311456
4.106200067144528 71.24329805374146 74.43800045293756 -3.899900131633411 25.726800556087007 -15.561100457729575 -10.811499607024013 25.05140071510488 2.4855700854345204 6.399450120195067 -8.817039973150685 0.7801920183230465 -5.549400207701599 17.335699717314778 -10.246399637174777 13.09829987511035 -23.01640049341294 -17.487399926328052 -0.0 0.0 0.0 -0.0 0.0 0.0 -5.0369801109395755e-14 -3.2381799106150693e-13 4.613480077812513e-13 62.9075995389482 16.60249940048142 -2.9814300797898103 -20.846500620518665 -52.66479855769237 112.11700198043654 -0.351256992219892 -16.618500826159465 -2.404089984061088 -3.3231099252720577e-09 -2.706520040906172e-09 -2.7564599178065067e-09 -5.718929928302098e-09 -4.6342299816117634e-09 -4.814050194345672e-09 -3.3231099252720577e-09 -2.706520040906172e-09 -2.7564799950579333e-09 7.730910121524428 5.474879855648998 0.41731399283890674 -3.3231099252720577e-09 -2.706520040906172e-09 -2.7564599178065067e-09 2.90554006136521 0.9651829962377875 0.10290200252939893 -3.3231099252720577e-09 -2.7065299801395516e-09 -2.7564599178065067e-09 10.278599710243157 0.7318009818271524 0.025912300303053633 -3.323120063290105e-09 -2.706520040906172e-09 -2.756449978573127e-09 2.221669932038622 -0.7334870246959406 -0.20891999872313852 -5.048260024602893e-14 -3.238229897970445e-13 4.610900147898167e-13 -79.62090168324015 60.870399996343515 9.31142016433361 28.214000281968808 -39.077199298367944 -82.28539945959714 2.8380599267995996 -42.352500401631666 7.349000094083165 3.6372998267724257e-09 1.847279994406875e-08 2.0769600533339455e-09 6.183769982844667e-09 3.0088101356074453e-08 3.71799010147182e-09 3.6372898875390464e-09 1.847279994406875e-08 2.0769699925673253e-09 -7.730910121524428 5.474879855648998 -0.41731399283890674 3.6372998267724257e-09 1.847279994406875e-08 2.0769600533339455e-09 -2.90554006136521 0.9651829962377875 -0.10290200252939893 3.6372898875390464e-09 1.847279994406875e-08 2.0769600533339455e-09 -10.278599710243157 0.7318009818271524 -0.025912300303053633 3.6372998267724257e-09 1.847279994406875e-08 2.0769499153158983e-09 -2.221669932038622 -0.7334870246959406 0.20891999872313852 -2.0321699793705798e-16 0.0 -3.882510030490358e-19 -76.23090121324441 -63.36350100566821 -68.59030326802046 -21.04080071938531 87.13520260052138 21.59029968339659 -13.09829987511035 39.02149910568649 23.553400211243098 2.0321699793705798e-16 0.0 3.882510030490358e-19 11.230300339946162 6.303330148665947 -1.7145700076304302 0.13009600050340803 56.26160008028318 -4.1044399647263745 24.225699146342038 -26.635400130806293 37.09600047676819
4.05810006759566 71.5516984462738 75.792000425281 -3.284799975408508 26.526899160746055 -14.300500253944511 -10.249299906251094 24.119600695322355 2.3051600300187425 6.464369787595569 -8.360499883743278 0.7137770197419879 -5.63147005322118 17.409499911296766 -10.456999982495658 12.735399971676525 -23.23669970735524 -17.95539936561545 -0.0 0.0 0.0 -0.0 0.0 0.0 7.549849925464231e-14 -6.396849836706589e-13 2.1001600131038784e-13 63.18599804951792 17.07219955687215 -3.7004701338132633 -21.19969994778378 -52.36120006417989 111.2159975760743 -0.32262700033374064 -15.952000721665868 -2.3023099201441433 -1.702720086739541e-09 -8.532869625450683e-10 -1.4737600060000198e-09 -2.939800010649457e-09 -1.4654000174121268e-09 -2.564269931562384e-09 -1.702720086739541e-09 -8.532869625450683e-10 -1.473790022484826e-09 7.730910121524428 5.474879855648998 0.41731399283890674 -1.702720086739541e-09 -8.532889503917443e-10 -1.473770044625733e-09 2.90554006136521 0.9651829962377875 0.10290200252939893 -1.7027099487214937e-09 -8.53290043707416e-10 -1.473770044625733e-09 10.278599710243157 0.7318009818271524 0.025912300303053633 -1.7027300259729205e-09 -8.53290043707416e-10 -1.4737600060000198e-09 2.221669932038622 -0.7334870246959406 -0.20891999872313852 7.543369768545248e-14 -6.396929913538017e-13 2.0976800579002837e-13 -84.86939662639637 61.54830310165645 14.653100232109958 28.183600817520375 -39.302800446653464 -82.68120209181022 3.5591300411104276 -46.00870066433949 8.370790417501548 5.6148299760084615e-09 1.9204599458230624e-08 3.781600002393085e-09 9.533289643914257e-09 3.058949989883377e-08 6.724839981715212e-09 5.6148200367750826e-09 1.9204599458230624e-08 3.781609941626465e-09 -7.730910121524428 5.474879855648998 -0.41731399283890674 5.6148299760084615e-09 1.9204599458230624e-08 3.781609941626465e-09 -2.90554006136521 0.9651829962377875 -0.10290200252939893 5.6148200367750826e-09 1.9204599458230624e-08 3.781609941626465e-09 -10.278599710243157 0.7318009818271524 -0.025912300303053633 5.6148299760084615e-09 1.9204599458230624e-08 3.781600002393085e-09 -2.221669932038622 -0.7334870246959406 0.20891999872313852 -2.0321699793705798e-16 0.0 -3.882510030490358e-19 -57.14329895495637 -60.15870111501736 -47.87610170417766 -2.37341005496986 71.62859680708475 2.6833599840802194 -14.585899708413494 37.65360004513511 25.74100051937146 2.0321699793705798e-16 0.0 3.882510030490358e-19 11.451999742668313 7.002029899341101 -1.9592399768615691 0.1606219968742594 54.01369944706736 -3.680630141821669 24.005200149366516 -26.091599252110093 36.71179892086039
3.9179000710646505 71.74469828605652 77.71800046903081 -2.54839992839241 27.14829952615006 -13.080500402133296 -9.84054040518251 23.18349936391001 2.1905300323954764 6.7120401308630475 -7.985159644509921 0.6803589852063783 -5.892049880906806 17.1337993254492 -10.505700085051496 12.376300214742166 -23.017800682192792 -18.12490075515307 -0.0 0.0 0.0 -0.0 0.0 0.0 1.1929899730582686e-13 -5.110749921263649e-13 4.913989984221964e-13 62.88669916008796 17.27920039250043 -3.993600081762231 -21.652700291653826 -51.95349924243266 110.03300198163893 -0.2866720040887208 -15.07400039442824 -2.169189960107418 -2.161520069157343e-09 -1.971279961717625e-09 -3.847039914964197e-09 -3.6987000373287437e-09 -3.310030092929207e-09 -6.683180281358733e-09 -2.161509931139296e-09 -1.971279961717625e-09 -3.847060191000291e-09 7.730910121524428 5.474879855648998 0.41731399283890674 -2.161520069157343e-09 -1.971279961717625e-09 -3.847049854197577e-09 2.90554006136521 0.9651829962377875 0.10290200252939893 -2.161509931139296e-09 -1.971279961717625e-09 -3.847049854197577e-09 10.278599710243157 0.7318009818271524 0.025912300303053633 -2.161520069157343e-09 -1.971279961717625e-09 -3.847039914964197e-09 2.221669932038622 -0.7334870246959406 -0.20891999872313852 1.1917599443961333e-13 -5.110769819142974e-13 4.910659758662851e-13 -89.8931032137783 61.710697679362674 19.89939926944802 28.14079943708649 -39.59859886413379 -83.20179911034859 3.9916299990735054 -47.88230010084944 8.953029893299286 2.1551899702025604e-09 8.469530071677342e-09 1.22504003355557e-09 3.665250143743792e-09 1.3529500753993773e-08 2.1954299504631013e-09 2.1551800309691806e-09 8.469519734874628e-09 1.2250499727889495e-09 -7.730910121524428 5.474879855648998 -0.41731399283890674 2.1551899702025604e-09 8.469530071677342e-09 1.2250499727889495e-09 -2.90554006136521 0.9651829962377875 -0.10290200252939893 2.1551800309691806e-09 8.469530071677342e-09 1.2250499727889495e-09 -10.278599710243157 0.7318009818271524 -0.025912300303053633 2.1551899702025604e-09 8.469530071677342e-09 1.2250299949298567e-09 -2.221669932038622 -0.7334870246959406 0.20891999872313852 -2.0321699793705798e-16 0.0 -3.882510030490358e-19 -43.58850167912093 -55.611000656177374 -31.342901403015187 -1.0059299838353795 57.91889767106259 0.9934379947302493 -12.235799808420419 38.129199777421434 20.541700013712262 2.0321699793705798e-16 0.0 3.882510030490358e-19 11.617399603609341 8.248020328491508 -2.3175399613328023 0.15083800435226738 51.474600528777216 -3.279079905422034 23.766399660509947 -25.10220024705685 36.73390141301455
